<?xml version="1.0" encoding="UTF-8"?>
<svg version="1.1" xmlns="http://www.w3.org/2000/svg" width="847" height="269">
<path d="M0 0 C1.97265625 1.94921875 1.97265625 1.94921875 4.0625 4.6875 C4.85011719 5.69425781 5.63773437 6.70101563 6.44921875 7.73828125 C6.86478027 8.27404785 7.2803418 8.80981445 7.70849609 9.36181641 C9.86087564 12.09196135 12.11894621 14.73044148 14.375 17.375 C15.30223082 18.46732274 16.22931263 19.55977198 17.15625 20.65234375 C17.62160156 21.20003418 18.08695312 21.74772461 18.56640625 22.31201172 C21.0058926 25.18439057 23.44038966 28.06098836 25.875 30.9375 C26.31505371 31.45683105 26.75510742 31.97616211 27.20849609 32.51123047 C30.15657812 35.99308467 33.08292214 39.49218773 36 43 C41.62533535 40.33365608 47.12096638 37.57195086 52.44140625 34.33984375 C53.57364624 33.65317627 53.57364624 33.65317627 54.72875977 32.95263672 C56.22943679 32.0341314 57.72361644 31.10491549 59.21069336 30.16455078 C59.90428955 29.74028809 60.59788574 29.31602539 61.3125 28.87890625 C61.92738281 28.4929126 62.54226562 28.10691895 63.17578125 27.70922852 C65.53250511 26.79297011 66.67237517 27.08506069 69 28 C70.9375 30.01171875 70.9375 30.01171875 73 32.6875 C73.78632813 33.68394531 74.57265625 34.68039063 75.3828125 35.70703125 C75.8046582 36.24279785 76.22650391 36.77856445 76.66113281 37.33056641 C78.99423968 40.23971753 81.43737541 43.05339561 83.875 45.875 C84.90262906 47.06876487 85.9299719 48.26277619 86.95703125 49.45703125 C87.46443848 50.04693848 87.9718457 50.6368457 88.49462891 51.24462891 C92.22459742 55.59404078 95.91413413 59.97787422 99.61035156 64.35595703 C101.06889896 66.08151188 102.53022172 67.8046844 103.9921875 69.52734375 C104.48517334 70.10863037 104.97815918 70.68991699 105.48608398 71.28881836 C106.42258573 72.3929295 107.35956263 73.49663789 108.29711914 74.59985352 C109.53660227 76.06218612 110.76847831 77.5309563 112 79 C112.70034363 79.67568527 113.40068726 80.35137054 114.12225342 81.04753113 C116.8635691 85.35783013 116.52955697 89.10638713 116.45410156 94.11450195 C116.45468567 95.12960342 116.45526978 96.1447049 116.45587158 97.19056702 C116.45308864 100.54015498 116.42198559 103.88884906 116.390625 107.23828125 C116.38316339 109.56283583 116.37747008 111.88739671 116.37347412 114.21195984 C116.35821167 120.32607431 116.318924 126.43980786 116.2746582 132.55377197 C116.23371903 138.79425911 116.21546596 145.03480787 116.1953125 151.27539062 C116.15243073 163.51712125 116.0820753 175.75846934 116 188 C104.45 188 92.9 188 81 188 C81 199.55 81 211.1 81 223 C38.43 223 -4.14 223 -48 223 C-48.33 185.38 -48.66 147.76 -49 109 C-66.83309401 116.2855913 -66.83309401 116.2855913 -69.13525391 125.18408203 C-69.23590501 128.54636884 -69.23590501 128.54636884 -68.9765625 132.0078125 C-68.97328949 133.2144455 -68.97001648 134.42107849 -68.96664429 135.66427612 C-68.93702334 139.4912713 -68.78315234 143.30137797 -68.625 147.125 C-68.58289477 149.72904633 -68.54895665 152.33323832 -68.5234375 154.9375 C-68.44338189 161.29724402 -68.25192207 167.64483754 -68 174 C-63.71 174 -59.42 174 -55 174 C-55 178.62 -55 183.24 -55 188 C-63.91 188 -72.82 188 -82 188 C-82.20350376 178.06414631 -82.36853743 168.12968079 -82.46630955 158.19221306 C-82.51324101 153.57754856 -82.57686674 148.96438594 -82.67895508 144.35058594 C-82.77690126 139.89600052 -82.83058807 135.44285722 -82.85389519 130.98727798 C-82.87049857 129.28944311 -82.90292498 127.59168546 -82.95157051 125.8944664 C-83.31686503 112.61893744 -83.31686503 112.61893744 -80.12600708 108.69613647 C-77.8047911 107.11417742 -75.60763903 106.02893334 -73 105 C-72.04577148 104.44425293 -71.09154297 103.88850586 -70.10839844 103.31591797 C-69.2837207 102.87908691 -68.45904297 102.44225586 -67.609375 101.9921875 C-66.19120483 101.2343396 -66.19120483 101.2343396 -64.74438477 100.46118164 C-63.75623779 99.9377417 -62.76809082 99.41430176 -61.75 98.875 C-53.09461325 94.2390153 -44.51999941 89.49276545 -36.01123047 84.59350586 C-29.16261149 80.65339001 -22.27520539 76.78647665 -15.375 72.9375 C-4.85379314 67.06468867 5.59533756 61.0766205 16 55 C16.77601563 55.78246094 17.55203125 56.56492188 18.3515625 57.37109375 C19.97763326 58.98517284 21.64510766 60.56022508 23.375 62.0625 C25 64 25 64 24.86230469 65.95898438 C23.70565866 68.69668561 22.44945069 69.23614287 19.828125 70.59375 C18.94640625 71.06071289 18.0646875 71.52767578 17.15625 72.00878906 C16.1971875 72.50088867 15.238125 72.99298828 14.25 73.5 C12.23333558 74.5657438 10.21773629 75.63350517 8.203125 76.703125 C6.6552832 77.52006836 6.6552832 77.52006836 5.07617188 78.35351562 C0.33083037 80.89340317 -4.33636953 83.56377658 -9 86.25 C-9.79760742 86.70826172 -10.59521484 87.16652344 -11.41699219 87.63867188 C-12.98897678 88.54225862 -14.55193142 89.46177878 -16.10440063 90.39849854 C-19 92 -19 92 -22.51333618 93.44488525 C-26.40135031 95.12582787 -30.06175104 96.88100083 -33 100 C-35.00895836 105.65688765 -34.78390934 111.02913171 -34.5859375 116.96875 C-34.58522657 118.43002364 -34.59082165 119.89131421 -34.6027832 121.35253906 C-34.60306515 126.73556154 -34.48184307 132.11803794 -34.375 137.5 C-34.25125 149.545 -34.1275 161.59 -34 174 C10.88 174 55.76 174 102 174 C102.061875 160.408125 102.12375 146.81625 102.1875 132.8125 C102.23543701 128.54546143 102.28337402 124.27842285 102.33276367 119.88208008 C102.32291379 116.00498836 102.32291379 116.00498836 102.29853821 112.12797546 C102.29471189 110.42180635 102.31219214 108.7154976 102.3474884 107.00968933 C102.53119265 97.35028165 102.36095663 90.0735361 95.70043945 82.6159668 C93.84488553 80.6919197 91.92872607 78.85295045 90 77 C88.47434797 75.18795779 86.96954953 73.35783081 85.5 71.5 C78.4792208 62.87843272 71.25172024 54.42767488 64 46 C59.95698825 47.48518799 56.38853744 49.42877998 52.6875 51.625 C51.61886719 52.25664063 50.55023438 52.88828125 49.44921875 53.5390625 C48.64097656 54.02117187 47.83273438 54.50328125 47 55 C49.40092181 59.36085799 52.35982798 62.90790106 55.625 66.625 C56.70930432 67.87415782 57.79262902 69.12416661 58.875 70.375 C59.40738281 70.98988281 59.93976563 71.60476562 60.48828125 72.23828125 C63.27270537 75.48317861 65.96876214 78.79650785 68.6234436 82.14801025 C70.95147004 85.02972445 70.95147004 85.02972445 73.58041382 87.57806396 C80.05228423 94.31865451 82.25559223 99.28713876 82.13296509 108.87969971 C82.08193002 110.34171359 82.02977058 111.80368859 81.9765625 113.265625 C81.95786272 114.79542367 81.94365107 116.32528308 81.9336853 117.85516357 C81.89587763 121.84177103 81.79800431 125.8246131 81.68664551 129.80975342 C81.5835152 133.89218214 81.53850159 137.97523212 81.48828125 142.05859375 C81.38169722 150.04096582 81.20613871 158.01957781 81 166 C76.38 166 71.76 166 67 166 C67.0220752 164.11885498 67.04415039 162.23770996 67.06689453 160.29956055 C67.12842758 154.04480423 67.14320543 147.79126212 67.12697029 141.53624249 C67.11881357 137.74793722 67.1287143 133.96156735 67.18164062 130.17358398 C67.23214566 126.50924984 67.23292121 122.84780745 67.20095444 119.18329811 C67.19723794 117.79399126 67.21066199 116.40451673 67.24249649 115.01556969 C67.41440296 106.96167924 66.72668509 101.97412401 61.20263672 95.89379883 C59.47650388 94.25398568 57.7424663 92.62244659 56 91 C54.49280446 89.23184699 53.00936905 87.44284857 51.5625 85.625 C48.26023633 81.53648308 44.90509552 77.50263562 41.5 73.5 C38.14534626 69.55365475 34.82777696 65.58357343 31.5625 61.5625 C28.10725696 57.3160743 24.57297796 53.14707641 21 49 C16.67317782 43.97707948 12.42610479 38.90030516 8.24609375 33.75390625 C4.2063948 28.80088406 0.0992799 23.90373149 -4 19 C-7.39805387 19.6754662 -10.0692901 20.98719899 -13.09765625 22.65234375 C-14.06380859 23.18150391 -15.02996094 23.71066406 -16.02539062 24.25585938 C-17.02763672 24.81080078 -18.02988281 25.36574219 -19.0625 25.9375 C-20.06861328 26.48857422 -21.07472656 27.03964844 -22.11132812 27.60742188 C-27.64857809 30.64881024 -27.64857809 30.64881024 -33 34 C-33.18946522 37.03813505 -33.19939984 39.88751698 -33.08984375 42.91796875 C-33.06824974 44.74801687 -33.04945946 46.57809981 -33.03320312 48.40820312 C-32.99421731 51.29585086 -32.937823 54.17866802 -32.83227539 57.06469727 C-32.2889211 73.16761677 -32.2889211 73.16761677 -36.67236328 77.86181641 C-40.27040481 79.99591991 -43.72797851 82 -48 82 C-48 63.19 -48 44.38 -48 25 C-36.6875 18.6875 -36.6875 18.6875 -32.96875 16.61352539 C-27.69907898 13.6652325 -22.44708128 10.69585 -17.25 7.62109375 C-15.95896362 6.85889526 -15.95896362 6.85889526 -14.6418457 6.08129883 C-13.03693794 5.12901843 -11.43629899 4.16949696 -9.84057617 3.2019043 C-9.12361572 2.7769165 -8.40665527 2.35192871 -7.66796875 1.9140625 C-7.05203857 1.5423291 -6.4361084 1.1705957 -5.80151367 0.78759766 C-4 0 -4 0 0 0 Z M-34 188 C-34 194.93 -34 201.86 -34 209 C-0.67 209 32.66 209 67 209 C67 202.07 67 195.14 67 188 C33.67 188 0.34 188 -34 188 Z " fill="#FE9913" transform="translate(134,19)"/>
<path d="M0 0 C3.63 0 7.26 0 11 0 C11 11.88 11 23.76 11 36 C25.19 36 39.38 36 54 36 C54 24.12 54 12.24 54 0 C57.63 0 61.26 0 65 0 C65 27.72 65 55.44 65 84 C61.37 84 57.74 84 54 84 C54 71.13 54 58.26 54 45 C39.81 45 25.62 45 11 45 C11 57.87 11 70.74 11 84 C7.37 84 3.74 84 0 84 C0 56.28 0 28.56 0 0 Z " fill="#1A447C" transform="translate(541,77)"/>
<path d="M0 0 C3.3 0 6.6 0 10 0 C11.23312727 3.11325973 12.46619659 6.22654239 13.69921875 9.33984375 C14.08625977 10.3170639 14.47330078 11.29428406 14.87207031 12.30111694 C17.01267354 17.70637449 19.15230876 23.11201264 21.2902832 28.51831055 C22.16225917 30.72314966 23.03424811 32.92798364 23.90625 35.1328125 C24.34023605 36.23017227 24.77422211 37.32753204 25.22135925 38.45814514 C27.53609324 44.30860488 29.85659702 50.15668635 32.18766785 56.00065613 C33.41026269 59.06670605 34.62923885 62.13418646 35.8475647 65.20193481 C36.40577178 66.60458145 36.96579948 68.00650496 37.52767944 69.40768433 C38.29779358 71.32858957 39.06172615 73.2518407 39.82421875 75.17578125 C40.24791748 76.23708252 40.67161621 77.29838379 41.1081543 78.3918457 C42 81 42 81 42 84 C38.37 84 34.74 84 31 84 C27.7 75.75 24.4 67.5 21 59 C10.11 58.67 -0.78 58.34 -12 58 C-12.33 59.65 -12.66 61.3 -13 63 C-13.57990757 64.70666146 -14.19783459 66.40074664 -14.84765625 68.08203125 C-15.38422852 69.47905273 -15.38422852 69.47905273 -15.93164062 70.90429688 C-16.30482422 71.86400391 -16.67800781 72.82371094 -17.0625 73.8125 C-17.43955078 74.79154297 -17.81660156 75.77058594 -18.20507812 76.77929688 C-19.13314718 79.18757732 -20.06609677 81.59397597 -21 84 C-24.63 84 -28.26 84 -32 84 C-31.20062499 80.00312495 -30.26827982 76.81865807 -28.8046875 73.06640625 C-28.34320312 71.87813232 -27.88171875 70.6898584 -27.40625 69.46557617 C-26.89597236 68.16449625 -26.38555157 66.86347246 -25.875 65.5625 C-25.34608905 64.20623943 -24.81744926 62.84987308 -24.2890625 61.4934082 C-22.53347022 56.99268142 -20.76776837 52.49595615 -19 48 C-18.67809692 47.18116333 -18.35619385 46.36232666 -18.02453613 45.51867676 C-12.05232255 30.33164717 -6.0764964 15.14566728 0 0 Z M4 15 C2.58962939 18.89445502 1.18393879 22.79056456 -0.2175293 26.68823242 C-0.69445082 28.01258317 -1.172625 29.33648355 -1.65209961 30.65991211 C-2.34302217 32.56766194 -3.02935029 34.47701244 -3.71484375 36.38671875 C-4.12855225 37.53358154 -4.54226074 38.68044434 -4.96850586 39.86206055 C-6.15741931 43.26750655 -6.15741931 43.26750655 -7 48 C0.92 48 8.84 48 17 48 C16.22462204 43.34773225 15.34443295 39.83963188 13.71484375 35.5078125 C13.26689453 34.30898437 12.81894531 33.11015625 12.35742188 31.875 C11.88423277 30.62495526 11.410924 29.3749558 10.9375 28.125 C10.45978804 26.85174939 9.98256966 25.57831348 9.50585938 24.3046875 C8.34207756 21.20126933 7.17331032 18.09982553 6 15 C5.34 15 4.68 15 4 15 Z " fill="#1C467D" transform="translate(659,77)"/>
<path d="M0 0 C3.3 0 6.6 0 10 0 C10.67692402 1.7346178 11.35384628 3.46923628 12.03076172 5.20385742 C12.64824733 6.78614351 13.26576148 8.36841846 13.88330078 9.95068359 C15.64030337 14.45262572 17.39677629 18.95477342 19.15234375 23.45727539 C22.58761091 32.26613922 26.02625356 41.07360734 29.4831543 49.87400818 C30.96716124 53.65242327 32.44875698 57.4317817 33.93017578 61.21121216 C34.64348281 63.028969 35.35800167 64.84625077 36.07373047 66.66305542 C37.07301923 69.19997356 38.06820064 71.73846681 39.0625 74.27734375 C39.51133545 75.41200073 39.51133545 75.41200073 39.96923828 76.56958008 C42 81.77226764 42 81.77226764 42 84 C38.37 84 34.74 84 31 84 C29.81417842 81.15402822 28.62873296 78.30790901 27.4453125 75.4609375 C26.48917402 73.17137347 25.52573749 70.8848422 24.5546875 68.6015625 C24.10351562 67.53679687 23.65234375 66.47203125 23.1875 65.375 C22.76855469 64.39273438 22.34960938 63.41046875 21.91796875 62.3984375 C21 60 21 60 21 58 C10.11 58 -0.78 58 -12 58 C-12.99 61.3 -13.98 64.6 -15 68 C-16.0083195 70.71142632 -17.03102818 73.38804126 -18.125 76.0625 C-18.38925781 76.72443359 -18.65351563 77.38636719 -18.92578125 78.06835938 C-20.86351657 82.86351657 -20.86351657 82.86351657 -22 84 C-25.66655195 84.14300125 -29.33144219 84.04216733 -33 84 C-28.57589316 72.06665314 -23.99197144 60.19881879 -19.35131836 48.34814453 C-18.19762785 45.40087307 -17.04695613 42.4524354 -15.89648438 39.50390625 C-10.72795028 26.28153742 -5.41240904 13.12434922 0 0 Z M4 14 C3.8141333 14.53254395 3.6282666 15.06508789 3.43676758 15.61376953 C-0.3373196 26.42312738 -4.13434777 37.22303014 -8 48 C0.25 48 8.5 48 17 48 C14.55459689 39.7963825 14.55459689 39.7963825 11.73828125 31.7734375 C11.34189453 30.72285156 10.94550781 29.67226562 10.53710938 28.58984375 C9.93092773 26.99849609 9.93092773 26.99849609 9.3125 25.375 C8.89677734 24.27542969 8.48105469 23.17585938 8.05273438 22.04296875 C7.03818089 19.36081585 6.02055394 16.67987417 5 14 C4.67 14 4.34 14 4 14 Z " fill="#1C467D" transform="translate(327,77)"/>
<path d="M0 0 C3.3 0 6.6 0 10 0 C14.56521188 10.75790111 18.83885618 21.6288032 23.125 32.5 C23.88007451 34.41326939 24.63520188 36.32651793 25.39038086 38.23974609 C26.89139577 42.0433163 28.39158587 45.84721032 29.89111328 49.65136719 C31.50209681 53.73809831 33.11519787 57.82398675 34.72961426 61.90936279 C36.0087474 65.14731572 37.28554428 68.38618773 38.5625 71.625 C39.02092285 72.78451172 39.4793457 73.94402344 39.95166016 75.13867188 C40.56533447 76.69811523 40.56533447 76.69811523 41.19140625 78.2890625 C41.54404541 79.18318848 41.89668457 80.07731445 42.26000977 80.99853516 C43 83 43 83 43 84 C39.04 84 35.08 84 31 84 C29.4938086 80.23153303 27.99482454 76.46047306 26.5 72.6875 C26.07074219 71.61564453 25.64148438 70.54378906 25.19921875 69.43945312 C24.79316406 68.41142578 24.38710938 67.38339844 23.96875 66.32421875 C23.40317383 64.9024231 23.40317383 64.9024231 22.82617188 63.4519043 C22 61 22 61 22 58 C5.665 58.495 5.665 58.495 -11 59 C-14.3 67.25 -17.6 75.5 -21 84 C-24.63 84 -28.26 84 -32 84 C-29.64837312 75.43152677 -26.45752155 67.29312471 -23.16067505 59.05645752 C-21.48679057 54.87429212 -19.82649557 50.68672735 -18.1640625 46.5 C-17.82232498 45.64048737 -17.48058746 44.78097473 -17.12849426 43.89541626 C-13.39235612 34.4904037 -9.72367111 25.05939533 -6.0625 15.625 C-5.44751435 14.0411766 -4.83252425 12.45735494 -4.2175293 10.87353516 C-2.81065491 7.24942275 -1.40493765 3.62486362 0 0 Z M5 14 C3.28682815 18.51909826 1.57794287 23.03978476 -0.12695312 27.56201172 C-0.70780153 29.10087017 -1.2898283 30.63928436 -1.87304688 32.17724609 C-2.71012029 34.38524077 -3.54297244 36.59478731 -4.375 38.8046875 C-4.63748535 39.49432587 -4.8999707 40.18396423 -5.17041016 40.89450073 C-6.53787587 44.35170921 -6.53787587 44.35170921 -7 48 C1.25 48 9.5 48 18 48 C14.036401 36.65322638 10.06381561 25.31126557 6 14 C5.67 14 5.34 14 5 14 Z " fill="#1C467D" transform="translate(743,77)"/>
<path d="M0 0 C40.38914234 0 40.38914234 0 49.21875 8.765625 C53.65195436 14.32657432 54.5342137 20.54201632 54.28515625 27.515625 C53.51641721 34.21313222 51.34110373 40.59390963 46 45 C34.87471531 52.24249998 24.23141579 52 11 52 C11 62.56 11 73.12 11 84 C7.37 84 3.74 84 0 84 C0 56.28 0 28.56 0 0 Z M11 9 C11 19.89 11 30.78 11 42 C15.2075 42.0928125 15.2075 42.0928125 19.5 42.1875 C20.36689453 42.21481201 21.23378906 42.24212402 22.12695312 42.27026367 C28.03949662 42.33257856 33.9305948 41.71153948 38.56420898 37.61816406 C40.91575574 34.9543319 42.67618986 32.56191154 43 29 C43.103125 27.9275 43.20625 26.855 43.3125 25.75 C42.92301171 21.07614051 41.87833069 17.72966794 39 14 C31.0215048 7.73246878 20.55062435 9 11 9 Z " fill="#1C467D" transform="translate(461,77)"/>
<path d="M0 0 C3.63 0 7.26 0 11 0 C11 24.75 11 49.5 11 75 C22.88 75 34.76 75 47 75 C47 77.97 47 80.94 47 84 C31.49 84 15.98 84 0 84 C0 56.28 0 28.56 0 0 Z " fill="#17427A" transform="translate(390,77)"/>
<path d="M0 0 C1.98 0 3.96 0 6 0 C8.05810547 2.11132812 8.05810547 2.11132812 9.8671875 5.03125 C10.52460938 6.06894531 11.18203125 7.10664063 11.859375 8.17578125 C12.52453125 9.27277344 13.1896875 10.36976563 13.875 11.5 C14.56335938 12.59699219 15.25171875 13.69398438 15.9609375 14.82421875 C17.65974947 17.53759899 19.33239287 20.26733081 21 23 C21.33 15.41 21.66 7.82 22 0 C23.65 0 25.3 0 27 0 C27 10.89 27 21.78 27 33 C21 33 21 33 18.9453125 31.05078125 C18.34460938 30.14714844 17.74390625 29.24351562 17.125 28.3125 C16.12339844 26.8275 16.12339844 26.8275 15.1015625 25.3125 C11.67264411 19.90781079 8.30225203 14.48409713 5 9 C5 16.92 5 24.84 5 33 C3.35 33 1.7 33 0 33 C0 22.11 0 11.22 0 0 Z " fill="#416492" transform="translate(382,197)"/>
<path d="M0 0 C1.98 0 3.96 0 6 0 C8.05810547 2.11132812 8.05810547 2.11132812 9.8671875 5.03125 C10.52460938 6.06894531 11.18203125 7.10664063 11.859375 8.17578125 C12.52453125 9.27277344 13.1896875 10.36976563 13.875 11.5 C14.56335938 12.59699219 15.25171875 13.69398438 15.9609375 14.82421875 C17.65974947 17.53759899 19.33239287 20.26733081 21 23 C21.33 15.41 21.66 7.82 22 0 C23.65 0 25.3 0 27 0 C27 10.89 27 21.78 27 33 C21 33 21 33 18.9453125 31.05078125 C18.34460938 30.14714844 17.74390625 29.24351562 17.125 28.3125 C16.12339844 26.8275 16.12339844 26.8275 15.1015625 25.3125 C11.67264411 19.90781079 8.30225203 14.48409713 5 9 C5 16.92 5 24.84 5 33 C3.35 33 1.7 33 0 33 C0 22.11 0 11.22 0 0 Z " fill="#416492" transform="translate(312,197)"/>
<path d="M0 0 C5.46035498 5.74774209 5.34025331 10.96668457 5.28515625 18.6015625 C4.82471238 24.08904427 3.03653127 26.21032101 -1.0625 29.8125 C-5.47142706 32.51474562 -9.98708448 32.59955136 -15 32 C-18.77005947 30.67109015 -21.41540208 28.7599773 -23.875 25.5625 C-26.55640485 19.45485563 -26.91794917 13.15139484 -24.75 6.8125 C-22.96481147 2.49968472 -20.83164574 -0.00992122 -16.6875 -2.25 C-10.43323268 -3.99537693 -5.65155747 -3.09236164 0 0 Z M-19 6 C-21.57138454 11.02588796 -21.1681574 15.63439568 -20 21 C-19.13353917 24.00155751 -19.13353917 24.00155751 -17 26 C-13.33447587 27.65385904 -10.1999116 28.24543646 -6.25 27.4375 C-3.15602863 25.46079607 -1.77670171 24.29018836 0 21 C0.79934343 14.58748938 0.94554115 9.34736871 -3 4 C-8.73995657 0.17336229 -14.4612867 0.92732043 -19 6 Z " fill="#3E6190" transform="translate(594,199)"/>
<path d="M0 0 C4.68573046 2.65230026 6.63252293 5.83506878 8.3125 10.875 C8.86498838 17.54735971 8.75919937 23.05126659 5.3125 28.875 C0.64540413 33.30874108 -3.16815675 34.18720525 -9.40625 34.0859375 C-12.78417113 33.77359548 -14.91322057 32.81054379 -17.6875 30.875 C-22.5177284 24.60875775 -23.30309278 19.5699097 -22.6875 11.875 C-21.72885843 7.1061644 -20.50712746 4.54094731 -16.6875 1.4375 C-10.88064172 -1.58690535 -6.29427216 -1.92028642 0 0 Z M-14.6875 6.125 C-18.06506672 10.76915423 -18.26818892 15.18863113 -17.6875 20.875 C-16.31421087 25.15643083 -15.28847686 26.50516808 -11.4375 28.875 C-6.91703267 30.08045795 -4.90646756 29.86507904 -0.6875 27.875 C2.88193288 24.30556712 3.60618601 21.26663826 3.8125 16.375 C3.63257069 11.29545708 2.68593004 8.64530416 -0.6875 4.875 C-5.47132989 2.48308506 -10.51559137 2.99606853 -14.6875 6.125 Z " fill="#3D608F" transform="translate(737.6875,197.125)"/>
<path d="M0 0 C5 0 5 0 6.95703125 1.94921875 C7.87548828 3.30466797 7.87548828 3.30466797 8.8125 4.6875 C9.48925781 5.6775 10.16601562 6.6675 10.86328125 7.6875 C14.33719128 13.07301318 17.69358078 18.50898237 21 24 C21.33 16.08 21.66 8.16 22 0 C23.32 0 24.64 0 26 0 C26 10.89 26 21.78 26 33 C20 33 20 33 18.26489258 31.31933594 C17.81267334 30.54879883 17.3604541 29.77826172 16.89453125 28.984375 C16.38599609 28.14519531 15.87746094 27.30601562 15.35351562 26.44140625 C14.84498047 25.55324219 14.33644531 24.66507813 13.8125 23.75 C12.7784122 22.01498775 11.74329059 20.28059115 10.70703125 18.546875 C10.2581958 17.77182617 9.80936035 16.99677734 9.34692383 16.19824219 C8.02849601 14.04650682 6.51411959 12.01882611 5 10 C4.67 17.59 4.34 25.18 4 33 C2.68 33 1.36 33 0 33 C0 22.11 0 11.22 0 0 Z " fill="#2A5185" transform="translate(756,197)"/>
<path d="M0 0 C1.65 0 3.3 0 5 0 C6.7132732 4.37659283 8.42215493 8.75486459 10.12695312 13.13476562 C10.7077731 14.62514709 11.28979968 16.11505891 11.87304688 17.60449219 C12.71019528 19.74292231 13.54301894 21.88299257 14.375 24.0234375 C14.63748535 24.69120209 14.8999707 25.35896667 15.17041016 26.04696655 C17 30.77225659 17 30.77225659 17 33 C15.35 33 13.7 33 12 33 C10.68 30.03 9.36 27.06 8 24 C4.04 23.67 0.08 23.34 -4 23 C-4.474375 24.464375 -4.94875 25.92875 -5.4375 27.4375 C-6.875 31.875 -6.875 31.875 -8 33 C-9.66617115 33.04063832 -11.33388095 33.042721 -13 33 C-8.918016 21.89042451 -4.5674978 10.91875213 0 0 Z M2 7 C1.3291288 8.6232687 0.66342971 10.24867578 0 11.875 C-0.37125 12.77992188 -0.7425 13.68484375 -1.125 14.6171875 C-2.11490226 16.88983858 -2.11490226 16.88983858 -2 19 C0.97 19 3.94 19 7 19 C5.68 15.04 4.36 11.08 3 7 C2.67 7 2.34 7 2 7 Z " fill="#395D8D" transform="translate(476,197)"/>
<path d="M0 0 C1.65 0 3.3 0 5 0 C6.7132732 4.37659283 8.42215493 8.75486459 10.12695312 13.13476562 C10.7077731 14.62514709 11.28979968 16.11505891 11.87304688 17.60449219 C12.71019528 19.74292231 13.54301894 21.88299257 14.375 24.0234375 C14.63748535 24.69120209 14.8999707 25.35896667 15.17041016 26.04696655 C17 30.77225659 17 30.77225659 17 33 C15.35 33 13.7 33 12 33 C10.68 30.03 9.36 27.06 8 24 C4.04 23.67 0.08 23.34 -4 23 C-4.474375 24.464375 -4.94875 25.92875 -5.4375 27.4375 C-6.875 31.875 -6.875 31.875 -8 33 C-9.66617115 33.04063832 -11.33388095 33.042721 -13 33 C-8.918016 21.89042451 -4.5674978 10.91875213 0 0 Z M2 7 C1.3291288 8.6232687 0.66342971 10.24867578 0 11.875 C-0.37125 12.77992188 -0.7425 13.68484375 -1.125 14.6171875 C-2.11490226 16.88983858 -2.11490226 16.88983858 -2 19 C0.97 19 3.94 19 7 19 C5.68 15.04 4.36 11.08 3 7 C2.67 7 2.34 7 2 7 Z " fill="#395D8D" transform="translate(358,197)"/>
<path d="M0 0 C1.32 0 2.64 0 4 0 C4.01981934 0.64026123 4.03963867 1.28052246 4.06005859 1.94018555 C4.15563601 4.8563528 4.26518214 7.77183572 4.375 10.6875 C4.4059375 11.69490234 4.436875 12.70230469 4.46875 13.74023438 C4.50742187 14.71669922 4.54609375 15.69316406 4.5859375 16.69921875 C4.6173584 17.59471436 4.6487793 18.49020996 4.68115234 19.4128418 C5.1175786 22.95404323 5.84101687 26.01932197 8.625 28.375 C12.25700487 29.33079075 15.30883207 28.61519465 19 28 C19.94466756 24.75921875 20.19098828 21.72774345 20.31640625 18.359375 C20.35830078 17.28945312 20.40019531 16.21953125 20.44335938 15.1171875 C20.48267578 14.00601563 20.52199219 12.89484375 20.5625 11.75 C20.60568359 10.62335938 20.64886719 9.49671875 20.69335938 8.3359375 C20.79932015 5.55741046 20.90139142 2.77879609 21 0 C22.65 0 24.3 0 26 0 C26.05821935 3.89577024 26.0936703 7.79142802 26.125 11.6875 C26.14175781 12.79029297 26.15851562 13.89308594 26.17578125 15.02929688 C26.18222656 16.09599609 26.18867187 17.16269531 26.1953125 18.26171875 C26.20578613 19.24100342 26.21625977 20.22028809 26.22705078 21.22924805 C25.88842612 25.3615612 24.76048222 28.11685936 22.0625 31.25 C18.44043611 34.32326633 14.83623671 34.33349743 10.2890625 34.2890625 C6.76990349 33.84466358 4.6541482 32.26573627 2 30 C-0.36008817 26.45986775 -0.23463644 24.98878045 -0.1953125 20.80078125 C-0.18886719 19.59228516 -0.18242188 18.38378906 -0.17578125 17.13867188 C-0.15064453 15.2447168 -0.15064453 15.2447168 -0.125 13.3125 C-0.11597656 12.03826172 -0.10695313 10.76402344 -0.09765625 9.45117188 C-0.07405641 6.30059373 -0.04113194 3.15039017 0 0 Z " fill="#33588A" transform="translate(636,197)"/>
<path d="M0 0 C0.86882813 0.09023437 1.73765625 0.18046875 2.6328125 0.2734375 C4.875 0.625 4.875 0.625 6.875 1.625 C6.545 2.945 6.215 4.265 5.875 5.625 C5.02035156 5.61339844 4.16570313 5.60179687 3.28515625 5.58984375 C2.18042969 5.58082031 1.07570313 5.57179687 -0.0625 5.5625 C-1.71572266 5.54509766 -1.71572266 5.54509766 -3.40234375 5.52734375 C-6.03947634 5.31237429 -6.03947634 5.31237429 -7.125 6.625 C-7.16563832 8.29117115 -7.167721 9.95888095 -7.125 11.625 C-6.29355469 12.01171875 -5.46210937 12.3984375 -4.60546875 12.796875 C-3.51878906 13.31765625 -2.43210937 13.8384375 -1.3125 14.375 C-0.23355469 14.88546875 0.84539063 15.3959375 1.95703125 15.921875 C4.84689782 17.60859766 6.2374224 18.74666395 7.875 21.625 C8.375 25.0625 8.375 25.0625 7.875 28.625 C5.33362841 31.78454305 3.72877341 33.34040886 -0.125 34.625 C-1.76779217 34.74292999 -3.41552694 34.80011674 -5.0625 34.8125 C-5.91714844 34.82667969 -6.77179687 34.84085938 -7.65234375 34.85546875 C-10.26409303 34.61203556 -11.88000652 33.9428268 -14.125 32.625 C-14.125 31.305 -14.125 29.985 -14.125 28.625 C-12.89523437 28.76808594 -12.89523437 28.76808594 -11.640625 28.9140625 C-10.02414062 29.08035156 -10.02414062 29.08035156 -8.375 29.25 C-6.77398438 29.42402344 -6.77398438 29.42402344 -5.140625 29.6015625 C-2.08707601 29.62529475 -0.66337579 29.23920985 1.875 27.625 C1.875 25.975 1.875 24.325 1.875 22.625 C0.95976563 22.15449219 0.04453125 21.68398437 -0.8984375 21.19921875 C-2.09916738 20.57071171 -3.2996768 19.94178337 -4.5 19.3125 C-5.10328125 19.00376953 -5.7065625 18.69503906 -6.328125 18.37695312 C-9.50758325 16.69890572 -11.09037552 15.67693672 -13.125 12.625 C-13.79767267 5.56193694 -13.79767267 5.56193694 -11.375 2.1875 C-7.56897913 -0.45557005 -4.53367504 -0.50073426 0 0 Z " fill="#416492" transform="translate(805.125,196.375)"/>
<path d="M0 0 C0.99386719 0.10183594 1.98773437 0.20367187 3.01171875 0.30859375 C3.77097656 0.39238281 4.53023437 0.47617188 5.3125 0.5625 C5.6425 1.8825 5.9725 3.2025 6.3125 4.5625 C3.31769083 5.4348412 0.67674089 5.67079766 -2.4375 5.625 C-3.23671875 5.61597656 -4.0359375 5.60695312 -4.859375 5.59765625 C-5.46265625 5.58605469 -6.0659375 5.57445312 -6.6875 5.5625 C-7.43707157 9.03397842 -7.43707157 9.03397842 -7.6875 12.5625 C-7.10742188 12.72105469 -6.52734375 12.87960938 -5.9296875 13.04296875 C-0.46062946 14.67646628 3.52807435 16.19585501 7.3125 20.5625 C8.1105838 23.41362547 8.09636204 25.70947271 7.3125 28.5625 C4.77796343 31.78204645 3.19952695 33.26682435 -0.6875 34.5625 C-2.35208673 34.65558544 -4.02031997 34.69246185 -5.6875 34.6875 C-6.986875 34.69136719 -6.986875 34.69136719 -8.3125 34.6953125 C-10.6875 34.5625 -10.6875 34.5625 -13.6875 33.5625 C-13.6875 31.9125 -13.6875 30.2625 -13.6875 28.5625 C-12.93984375 28.65789062 -12.1921875 28.75328125 -11.421875 28.8515625 C-9.94460938 29.01785156 -9.94460938 29.01785156 -8.4375 29.1875 C-7.46296875 29.30351562 -6.4884375 29.41953125 -5.484375 29.5390625 C-2.55320607 29.56362537 -1.14221036 29.0937717 1.3125 27.5625 C1.3125 25.9125 1.3125 24.2625 1.3125 22.5625 C0.39726563 22.10359375 -0.51796875 21.6446875 -1.4609375 21.171875 C-2.6617734 20.55269399 -3.86227708 19.93286838 -5.0625 19.3125 C-5.66578125 19.01214844 -6.2690625 18.71179688 -6.890625 18.40234375 C-10.3329833 16.60466775 -12.49687401 15.3467189 -13.6875 11.5625 C-14.125 8.625 -14.125 8.625 -13.6875 5.5625 C-9.41221486 0.36282888 -6.54275059 -0.69276183 0 0 Z " fill="#3F6291" transform="translate(553.6875,196.4375)"/>
<path d="M0 0 C-0.33 1.32 -0.66 2.64 -1 4 C-1.88042969 3.94199219 -2.76085937 3.88398438 -3.66796875 3.82421875 C-10.9068008 3.35435899 -10.9068008 3.35435899 -17.25 6.3125 C-20.06280402 10.63216332 -20.34509866 13.9097948 -20 19 C-18.64184747 22.27191292 -17.50104494 24.49895506 -15 27 C-10.05684409 28.06617088 -5.95687482 27.9104464 -1 27 C-1 28.65 -1 30.3 -1 32 C-6.79362169 33.65532048 -12.65180487 33.78273171 -18.375 31.875 C-22.39530086 29.00335653 -24.45092353 25.64722941 -26 21 C-26.57123934 14.71636723 -26.26746105 9.55468379 -23 4 C-16.41038906 -3.10644317 -8.83633054 -3.44832411 0 0 Z " fill="#436593" transform="translate(444,198)"/>
<path d="M0 0 C8.58 0 17.16 0 26 0 C26 1.32 26 2.64 26 4 C22.7 4 19.4 4 16 4 C16 13.57 16 23.14 16 33 C14.35 33 12.7 33 11 33 C11 23.43 11 13.86 11 4 C7.37 4 3.74 4 0 4 C0 2.68 0 1.36 0 0 Z " fill="#375B8C" transform="translate(668,197)"/>
<path d="M0 0 C6.27 0 12.54 0 19 0 C19 1.32 19 2.64 19 4 C14.05 4 9.1 4 4 4 C4 7.63 4 11.26 4 15 C8.62 15 13.24 15 18 15 C18 16.32 18 17.64 18 19 C13.38 19 8.76 19 4 19 C4 23.62 4 28.24 4 33 C2.68 33 1.36 33 0 33 C0 22.11 0 11.22 0 0 Z " fill="#1C467D" transform="translate(270,197)"/>
<path d="M0 0 C1.65 0 3.3 0 5 0 C5 9.57 5 19.14 5 29 C9.62 29 14.24 29 19 29 C19 30.32 19 31.64 19 33 C12.73 33 6.46 33 0 33 C0 22.11 0 11.22 0 0 Z " fill="#345A8B" transform="translate(609,197)"/>
<path d="M0 0 C1.65 0 3.3 0 5 0 C5 9.57 5 19.14 5 29 C9.62 29 14.24 29 19 29 C19 30.32 19 31.64 19 33 C12.73 33 6.46 33 0 33 C0 22.11 0 11.22 0 0 Z " fill="#345A8B" transform="translate(500,197)"/>
<path d="M0 0 C4.62 0 9.24 0 14 0 C14 4.62 14 9.24 14 14 C9.38 14 4.76 14 0 14 C0 9.38 0 4.76 0 0 Z " fill="#FF9F20" transform="translate(154,154)"/>
<path d="M0 0 C4.62 0 9.24 0 14 0 C14 4.62 14 9.24 14 14 C9.38 14 4.76 14 0 14 C0 9.38 0 4.76 0 0 Z " fill="#FF9D1C" transform="translate(134,154)"/>
<path d="M0 0 C4.62 0 9.24 0 14 0 C14 4.62 14 9.24 14 14 C9.38 14 4.76 14 0 14 C0 9.38 0 4.76 0 0 Z " fill="#FE9F20" transform="translate(154,133)"/>
<path d="M0 0 C4.62 0 9.24 0 14 0 C14 4.62 14 9.24 14 14 C9.38 14 4.76 14 0 14 C0 9.38 0 4.76 0 0 Z " fill="#FE9D1C" transform="translate(134,133)"/>
<path d="M0 0 C1.65 0 3.3 0 5 0 C5 10.89 5 21.78 5 33 C3.35 33 1.7 33 0 33 C0 22.11 0 11.22 0 0 Z " fill="#3D6090" transform="translate(701,197)"/>
<path d="M0 0 C1.65 0 3.3 0 5 0 C5 10.89 5 21.78 5 33 C3.35 33 1.7 33 0 33 C0 22.11 0 11.22 0 0 Z " fill="#3D6190" transform="translate(452,197)"/>
<path d="M0 0 C1.65 0 3.3 0 5 0 C5 10.89 5 21.78 5 33 C3.35 33 1.7 33 0 33 C0 22.11 0 11.22 0 0 Z " fill="#3D6190" transform="translate(296,197)"/>
</svg>